HIERARCHY
ROOT Hips
{
    OFFSET 0 0 0
    CHANNELS 6 Xposition Yposition Zposition Zrotation Xrotation Yrotation 
    JOINT LeftHip
    {
        OFFSET 3.3 0 0
        CHANNELS 3 Zrotation Xrotation Yrotation 
        JOINT LeftKnee
        {
            OFFSET 0 -17.8 0
            CHANNELS 1 Xrotation 
            End Site
            {
                OFFSET 0 -16.03 0
            }
        }
    }
    JOINT RightHip
    {
        OFFSET -3.3 0 0
        CHANNELS 3 Zrotation Xrotation Yrotation 
        JOINT RightKnee
        {
            OFFSET 0 -17.7 0
            CHANNELS 1 Xrotation 
            End Site
            {
                OFFSET 0 -16.1 0
            }
        }
    }
    JOINT Chest
    {
        OFFSET 0 4.41 0
        CHANNELS 3 Zrotation Xrotation Yrotation 
        JOINT Neck
        {
            OFFSET 0 16.76 0
            CHANNELS 2 Zrotation Xrotation 
            JOINT Head
            {
                OFFSET 0 4.4 0
                CHANNELS 3 Zrotation Xrotation Yrotation 
                End Site
                {
                    OFFSET 0 3.31 0
                }
            }
        }
        JOINT LeftCollar
        {
            OFFSET 1.01 14.58 1.68
            CHANNELS 2 Zrotation Yrotation 
            JOINT LeftShoulder
            {
                OFFSET 5.89 0 0
                CHANNELS 3 Zrotation Xrotation Yrotation 
                JOINT LeftElbow
                {
                    OFFSET 0 -11.63 0
                    CHANNELS 1 Xrotation 
                    End Site
                    {
                        OFFSET 0 -9.24 0
                    }
                }
            }
        }
        JOINT RightCollar
        {
            OFFSET -1.01 14.58 1.68
            CHANNELS 2 Zrotation Yrotation 
            JOINT RightShoulder
            {
                OFFSET -6.39 0 0
                CHANNELS 3 Zrotation Xrotation Yrotation 
                JOINT RightElbow
                {
                    OFFSET 0 -11.08 0
                    CHANNELS 1 Xrotation 
                    End Site
                    {
                        OFFSET 0 -9.13 0
                    }
                }
            }
        }
    }
}
MOTION
Frames:  21
Frame Time: 0.033333
-0.0115955	37.788	0.00615142	1.32349	-6.20228	0.113282	-5.83226	-2.34469	-6.47693	10.3116	0.00832795	-11.9094	-1.41638	59.3869	-2.8103	4.05911	3.85031	2.13833	35.6415	-3.84625	-37.0898	0	-16.2893	25.6617	30.0385	-16.2592	-55.4627	-17.9739	22.2157	-23.0233	-42.812	-7.63492	69.4687	-35.8448	
0.0585098	37.9106	1.63751	0.832342	-6.25899	0.31034	-5.20195	1.09487	-4.03208	8.9885	0.614703	-14.1559	-1.62208	56.0046	-2.13857	4.49313	2.10483	3.03308	36.8274	-4.43434	-36.1306	0	-15.4993	24.8381	28.1052	-21.2521	-53.4299	-19.1667	22.0946	-22.9878	-43.6796	-5.19234	73.9161	-34.4985	
0.123373	37.9888	3.33135	0.560434	-6.70423	1.12584	-4.38227	6.43443	6.10255	4.71124	1.20804	-18.4147	-2.40919	48.3068	-1.687	5.14214	-0.136659	4.76847	39.0585	-5.70097	-35.2203	0	-14.919	23.8076	27.1531	-25.9191	-49.0462	-22.25	21.9997	-22.8773	-44.5126	-2.62622	78.2458	-31.8301	
0.186039	37.9143	4.97175	0.871239	-6.28858	3.56575	-4.06975	9.53762	17.9907	3.2271	0.439155	-21.5309	-3.85283	39.4134	-1.85505	5.15733	-3.07342	6.21112	40.6727	-6.95496	-36.4436	0	-14.5457	22.6503	26.8187	-30.5028	-45.3292	-26.3253	22.5943	-23.1727	-45.9354	-0.352487	82.1557	-29.5403	
0.233522	37.7132	6.59208	1.53549	-5.43237	5.97796	-3.87609	10.6782	18.9995	4.98593	-0.857243	-22.8729	-5.22528	29.965	-2.44946	4.74966	-5.41401	7.52078	41.4659	-7.75116	-38.015	0	-14.2628	21.7276	26.6205	-34.7272	-43.376	-29.7928	23.639	-23.5887	-47.7115	1.59058	87.0126	-27.7402	
0.238781	37.3022	8.4614	2.17935	-5.49891	7.19421	-3.52047	11.3636	13.0212	10.5981	-1.65513	-22.6842	-5.44005	19.7652	-3.14854	4.8916	-6.28255	9.02564	41.6027	-7.81517	-37.6275	0	-13.7595	21.2471	26.2899	-38.0043	-42.4999	-31.3607	24.62	-23.7155	-49.1554	3.29924	95.4066	-26.1751	
0.245327	36.2495	10.9419	3.20722	-6.42082	8.95447	-3.54152	11.3777	5.17303	22.0462	-2.88945	-22.0131	-2.61396	8.30175	-3.87488	5.6154	-6.9413	10.0968	41.044	-7.37927	-35.7332	0	-13.0312	21.2106	25.682	-39.9448	-42.3684	-32.2314	25.4306	-23.696	-50.2145	5.44113	104.237	-24.9589	
0.253388	34.5653	13.5738	4.10726	-6.78785	12.0436	-4.24494	10.451	-3.33222	35.4315	-4.74432	-21.5837	4.07299	-1.12463	-4.20936	5.83951	-8.19273	10.0235	39.8443	-6.79312	-33.5743	0	-12.663	21.3594	25.252	-40.6089	-42.5336	-34.1016	25.9758	-23.6315	-50.9864	7.37487	109.458	-24.2859	
0.185609	35.2974	15.0335	3.49122	-6.9768	13.1452	-4.86877	6.92482	-9.29836	41.9337	-3.61106	-20.2601	8.15969	2.34243	-3.61356	5.2722	-9.15263	9.28863	38.8852	-6.17743	-31.979	0	-12.9216	21.654	25.3817	-40.1554	-42.2112	-37.0822	26.018	-23.5418	-51.5122	8.9488	107.747	-24.1216	
0.10726	36.0251	16.8091	2.54088	-7.38208	13.4154	-4.4356	4.25312	-10.7137	47.5638	-1.46648	-18.9531	9.37976	6.82665	-2.54488	4.58864	-9.31825	8.64598	39.071	-5.57285	-31.474	0	-13.2709	22.1179	25.9208	-38.4312	-41.4528	-40.6409	25.9049	-23.5856	-51.8306	9.87988	103.604	-24.3449	
0.0334579	36.5859	18.8698	1.38513	-7.8919	12.7983	-3.04019	2.66769	-9.07225	52.8867	0.954274	-17.8015	6.59923	12.19	-1.25678	3.90015	-8.69579	7.94979	39.5455	-4.9916	-31.4883	0	-13.6732	22.6139	26.7434	-35.5617	-41.151	-43.5703	25.5925	-23.5118	-51.5792	9.82385	103.131	-24.6978	
0.0309077	36.9617	20.8965	-0.0849008	-8.01342	11.1256	-1.23203	0.81755	-6.36516	56.9234	3.25683	-16.9096	3.79907	16.9044	0.643254	3.25816	-7.139	6.8504	39.0543	-4.44989	-31.2113	0	-14.3308	23.0361	27.5366	-32.1006	-41.1334	-44.7161	24.7888	-23.2479	-50.6389	8.81268	98.795	-24.9079	
0.0645696	37.2244	22.8123	-1.47113	-7.77593	9.40486	0.442739	-1.46412	-4.11159	59.7089	5.148	-15.6243	2.23253	19.9651	2.55813	2.84985	-5.21751	5.96524	38.1636	-4.04444	-30.9873	0	-14.8668	23.3672	27.6786	-28.5821	-40.456	-45.0103	23.9537	-23.1862	-48.8669	7.13009	85.0928	-24.8887	
0.0448447	37.5085	24.6871	-2.18126	-7.63307	8.88874	1.49003	-3.91431	-3.47127	61.3662	6.40876	-13.1326	2.19021	20.957	3.37777	2.83807	-3.86242	6.14633	38.023	-3.88312	-31.485	0	-14.8055	23.4926	27.2721	-24.9589	-39.3098	-45.9547	23.5547	-23.4604	-46.4676	4.02854	71.5863	-24.6653	
0.00182299	37.775	26.5521	-2.20539	-7.70315	9.11508	1.76808	-6.67577	-3.74619	61.7523	7.0888	-9.83459	2.45577	20.8771	3.26629	3.13368	-2.8381	6.8544	38.2719	-3.89071	-32.0496	0	-14.5533	23.5826	26.8717	-21.5654	-39.9993	-46.5484	23.5515	-23.5559	-44.388	0.302967	62.4181	-24.5131	
-0.0104501	37.9567	28.3384	-1.78508	-7.66146	8.93607	1.32846	-10.0062	-3.5228	60.6029	7.20023	-6.73813	2.54115	20.8334	2.72164	3.53864	-1.42355	7.00965	37.964	-3.912	-31.5499	0	-14.5154	23.6847	26.9843	-18.712	-42.1976	-44.6891	23.338	-23.1285	-42.2857	-3.60887	52.833	-24.7283	
0.0203345	38.026	30.074	-1.14522	-7.64006	7.94365	0.464463	-13.4826	-2.79908	57.679	6.82048	-3.98365	1.93311	21.4802	2.05595	4.03383	0.654049	6.55577	37.2835	-3.84748	-30.1582	0	-14.7733	23.5727	27.5877	-16.0039	-44.9984	-38.9754	22.7403	-22.5551	-40.212	-7.91874	42.5929	-24.7513	
0.0986468	37.9779	31.8294	-0.571828	-7.87425	6.56797	-0.403323	-16.3804	-2.24835	52.7516	6.08359	-1.21932	0.226672	22.6885	1.58063	4.63431	3.13145	5.92421	36.9394	-3.63608	-28.6877	0	-15.3165	23.1702	28.9062	-12.5495	-50.613	-28.921	22.1485	-22.3994	-38.6341	-12.7344	33.8625	-23.8042	
0.191016	37.7707	33.6182	-0.324993	-8.28006	5.16851	-0.835341	-18.5059	-1.91703	45.5513	5.45305	1.38216	-1.65095	24.6841	1.54066	5.27707	5.15649	5.07232	36.9805	-3.3085	-27.5464	0	-15.9483	22.9945	31.148	-8.05196	-57.0738	-19.5034	21.6294	-22.347	-37.6247	-17.5806	28.4545	-23.3875	
0.288702	37.3988	35.3613	-0.76387	-8.32158	3.09627	-0.445335	-19.9762	-1.55413	35.92	5.44677	3.22753	-1.7403	27.3234	2.23091	5.64873	6.76377	3.74184	37.1007	-2.95807	-26.9066	0	-16.6901	23.3663	33.2384	-3.67325	-59.5535	-18.0139	21.2001	-21.8693	-37.2062	-21.8486	28.9553	-26.0283	
0.380636	36.9351	37.032	-1.60831	-7.63319	0.480635	0.429784	-20.943	-1.66781	25.2317	5.83436	4.31837	-0.205101	29.8592	3.22462	5.37141	8.43635	2.3535	37.3101	-2.79203	-26.9525	0	-17.2556	23.9926	34.9708	1.11358	-66.4326	-22.3508	21.0056	-21.1543	-37.2919	-25.4629	31.2307	-31.0042	
